<svg height="470pt" viewBox="0 -39 470.76585 470" width="470pt" xmlns="http://www.w3.org/2000/svg"><path d="m68.925781 282.144531h1.75c19.320313-.023437 34.976563-15.679687 35-35v-13.300781c-.023437-19.320312-15.679687-34.980469-35-35h-1.75c-19.324219.019531-34.980469 15.679688-35 35v13.300781c.019531 19.320313 15.675781 34.976563 35 35zm-21-48.300781c.011719-11.59375 9.40625-20.988281 21-21h1.75c11.59375.011719 20.988281 9.40625 21 21v13.300781c-.011719 11.589844-9.40625 20.984375-21 21h-1.75c-11.59375-.015625-20.988281-9.410156-21-21zm0 0"/><path d="m104.617188 288.703125h-7.289063c-1.683594 0-3.3125.605469-4.585937 1.710937l-21.847657 18.9375-20.988281-18.855468c-1.285156-1.15625-2.949219-1.792969-4.679688-1.792969h-8.21875c-10.398437 0-20.320312 4.371094-27.332031 12.050781-7.011719 7.679688-10.46875 17.953125-9.523437 28.308594v56.777344c0 3.867187 3.132812 7 7 7l127.3125-.015625c3.863281 0 7-3.132813 7-7v-56.761719c.945312-10.351562-2.511719-20.625-9.523438-28.304688-7.007812-7.679687-16.925781-12.054687-27.324218-12.054687zm22.882812 39.320313c-.023438.234374-.035156.46875-.035156.707031v50.097656l-113.3125.015625v-50.113281c0-.238281-.011719-.472657-.035156-.707031-.65625-6.472657 1.460937-12.917969 5.820312-17.746094 4.363281-4.824219 10.5625-7.574219 17.070312-7.574219h5.539063l23.5625 21.171875c.144531.128906.292969.253906.445313.371094 2.636718 2.019531 6.328124 1.90625 8.839843-.269532l24.542969-21.273437h4.679688c6.503906 0 12.703124 2.753906 17.066406 7.578125 4.359375 4.824219 6.472656 11.269531 5.816406 17.742188zm0 0"/><path d="m233.496094 198.839844c-19.320313.023437-34.976563 15.679687-35 35v13.300781c.023437 19.320313 15.679687 34.976563 35 35h1.753906c19.320312-.023437 34.976562-15.679687 35-35v-13.300781c-.023438-19.320313-15.679688-34.976563-35-35zm22.753906 35v13.300781c-.011719 11.59375-9.40625 20.988281-21 21h-1.753906c-11.589844-.011719-20.984375-9.40625-21-21v-13.300781c.015625-11.589844 9.410156-20.984375 21-21h1.753906c11.59375.015625 20.988281 9.410156 21 21zm0 0"/><path d="m269.195312 288.703125h-7.292968c-1.683594 0-3.3125.605469-4.585938 1.710937l-21.847656 18.9375-20.984375-18.855468c-1.285156-1.15625-2.953125-1.792969-4.679687-1.792969h-8.222657c-10.398437-.003906-20.316406 4.371094-27.328125 12.050781-7.011718 7.679688-10.46875 17.953125-9.523437 28.308594v56.777344c0 3.867187 3.132812 7 7 7l127.308593-.015625c3.867188 0 7-3.132813 7-7v-56.761719c.945313-10.351562-2.507812-20.625-9.519531-28.304688-7.007812-7.679687-16.925781-12.054687-27.324219-12.054687zm22.878907 39.320313c-.023438.234374-.035157.46875-.035157.707031v50.097656l-113.3125.015625v-50.113281c0-.238281-.011718-.472657-.035156-.707031-.652344-6.472657 1.460938-12.917969 5.824219-17.742188 4.359375-4.824219 10.5625-7.578125 17.066406-7.578125h5.535157l23.566406 21.171875c.144531.128906.292968.253906.445312.371094 2.636719 2.019531 6.328125 1.90625 8.839844-.269532l24.542969-21.273437h4.679687c6.503906 0 12.703125 2.753906 17.0625 7.578125 4.363282 4.824219 6.476563 11.269531 5.820313 17.742188zm0 0"/><path d="m363.070312 233.839844v13.300781c.023438 19.320313 15.679688 34.976563 35 35h1.753907c19.320312-.023437 34.976562-15.679687 35-35v-13.300781c-.023438-19.320313-15.679688-34.976563-35-35h-1.753907c-19.320312.023437-34.976562 15.679687-35 35zm57.753907 0v13.300781c-.011719 11.59375-9.40625 20.988281-21 21h-1.753907c-11.589843-.011719-20.984374-9.40625-21-21v-13.300781c.015626-11.589844 9.410157-20.984375 21-21h1.753907c11.59375.015625 20.988281 9.410156 21 21zm0 0"/><path d="m433.769531 288.703125h-7.292969c-1.683593 0-3.3125.605469-4.582031 1.710937l-21.851562 18.9375-20.988281-18.855468c-1.285157-1.15625-2.949219-1.792969-4.675782-1.792969h-8.222656c-10.398438-.003906-20.320312 4.371094-27.332031 12.050781-7.011719 7.679688-10.46875 17.953125-9.523438 28.308594v56.777344c0 3.867187 3.136719 7 7 7l127.3125-.015625c3.867188 0 7-3.132813 7-7v-56.761719c.945313-10.351562-2.511719-20.625-9.519531-28.304688-7.011719-7.679687-16.929688-12.054687-27.324219-12.054687zm22.878907 39.320313c-.023438.234374-.035157.46875-.035157.707031v50.097656l-113.308593.015625v-50.113281c0-.238281-.015626-.472657-.039063-.707031-.652344-6.472657 1.460937-12.917969 5.824219-17.742188 4.363281-4.824219 10.5625-7.578125 17.066406-7.578125h5.539062l23.5625 21.167969c.15625.144531.324219.28125.5.414062.496094.371094 1.039063.675782 1.613282.90625 2.429687.964844 5.195312.496094 7.171875-1.214844l24.539062-21.273437h4.683594c6.5 0 12.699219 2.753906 17.0625 7.578125 4.359375 4.824219 6.472656 11.269531 5.816406 17.742188zm0 0"/><path d="m188.972656 217.144531v-13.300781c-.023437-19.320312-15.679687-34.980469-35-35h-1.75c-19.324218.019531-34.980468 15.679688-35 35v13.300781c.019532 19.320313 15.675782 34.976563 35 35h1.75c19.320313-.023437 34.976563-15.679687 35-35zm-14 0c-.011718 11.589844-9.40625 20.984375-21 21h-1.75c-11.59375-.015625-20.988281-9.410156-21-21v-13.300781c.011719-11.59375 9.40625-20.988281 21-21h1.75c11.59375.011719 20.988282 9.40625 21 21zm0 0"/><path d="m353.546875 217.144531v-13.300781c-.023437-19.320312-15.679687-34.980469-35-35h-1.75c-19.324219.019531-34.980469 15.679688-35 35v13.300781c.019531 19.320313 15.675781 34.976563 35 35h1.75c19.320313-.023437 34.976563-15.679687 35-35zm-14 0c-.011719 11.589844-9.40625 20.984375-21 21h-1.75c-11.59375-.015625-20.988281-9.410156-21-21v-13.300781c.011719-11.59375 9.40625-20.988281 21-21h1.75c11.59375.011719 20.988281 9.40625 21 21zm0 0"/><path d="m202.160156 46.710938h129.246094c3.867188 0 7-3.132813 7-7 0-3.863282-3.132812-7-7-7h-129.246094c-3.867187 0-7 3.136718-7 7 0 3.867187 3.132813 7 7 7zm0 0"/><path d="m372.234375 71.074219c0-3.867188-3.136719-7-7-7h-163.074219c-3.867187 0-7 3.132812-7 7 0 3.863281 3.132813 7 7 7h163.070313c3.867187 0 7.003906-3.136719 7.003906-7zm0 0"/><path d="m95.285156 161.613281c2.332032 1.195313 5.140625.988281 7.273438-.539062l32.738281-23.460938h202.171875c3.867188 0 7-3.136719 7-7v-20.214843h10.621094l32.738281 23.457031c2.132813 1.527343 4.941406 1.734375 7.273437.535156 2.335938-1.199219 3.800782-3.601563 3.800782-6.226563v-120.78125c0-3.867187-3.132813-7-7-7h-216.417969c-3.867187 0-7 3.132813-7 7v20.21875h-70c-3.867187 0-7 3.132813-7 7v120.78125c0 2.625 1.464844 5.03125 3.800781 6.230469zm87.199219-147.230469h202.421875v100.152344l-23.488281-16.828125c-1.191407-.851562-2.617188-1.3125-4.078125-1.3125h-174.855469zm-77 27.21875h63v61.800782c0 3.863281 3.132813 7 7 7h154.984375v13.210937h-197.421875c-1.460937 0-2.886719.457031-4.078125 1.308594l-23.484375 16.835937zm0 0"/></svg>