<?xml version="1.0" encoding="UTF-8" standalone="no"?><!DOCTYPE svg PUBLIC "-//W3C//DTD SVG 1.1//EN" "http://www.w3.org/Graphics/SVG/1.1/DTD/svg11.dtd"><svg width="100%" height="100%" viewBox="0 0 289 294" version="1.1" xmlns="http://www.w3.org/2000/svg" xmlns:xlink="http://www.w3.org/1999/xlink" xml:space="preserve" xmlns:serif="http://www.serif.com/" style="fill-rule:evenodd;clip-rule:evenodd;stroke-linejoin:round;stroke-miterlimit:1.41421;"><g><path d="M0.091,136.591c0.795,-6.906 6.668,-12.276 13.786,-12.276l31.058,0l0,44.934l-17.181,0l0,-27.754l-7.269,0c-1.824,0 -3.304,1.481 -3.304,3.304l0,24.45l-17.181,0l0,-31.058c0,-0.541 0.031,-1.075 0.091,-1.6" style="fill:#ffde73;fill-rule:nonzero;"/><path d="M288.794,136.591c-0.794,-6.906 -6.668,-12.276 -13.785,-12.276l-31.058,0l0,44.934l17.18,0l0,-27.754l7.27,0c1.823,0 3.304,1.481 3.304,3.304l0,24.45l17.18,0l0,-31.058c0,-0.541 -0.031,-1.075 -0.091,-1.6" style="fill:#ffde73;fill-rule:nonzero;"/><g><path d="M203.474,136.591c-0.794,-6.906 -6.668,-12.276 -13.785,-12.276l-31.058,0l0,44.934l17.18,0l0,-27.754l7.27,0c1.823,0 3.304,1.481 3.304,3.304l0,24.45l17.18,0l0,-31.058c0,-0.541 -0.031,-1.075 -0.091,-1.6" style="fill:#fff;fill-rule:nonzero;"/><path d="M152.393,170.138l-15.551,-1.623l-1.627,-22.047l17.147,-1.927l0.031,25.597Z" style="fill:#fff;fill-rule:nonzero;"/><path d="M129.943,122.448c12.4,0 22.467,10.067 22.467,22.467c0,12.4 -10.067,22.468 -22.467,22.468c-12.4,0 -22.467,-10.068 -22.467,-22.468c0,-12.4 10.067,-22.467 22.467,-22.467Zm0,17.181c2.918,0 5.287,2.369 5.287,5.286c0,2.918 -2.369,5.287 -5.287,5.287c-2.918,0 -5.287,-2.369 -5.287,-5.287c0,-2.917 2.369,-5.286 5.287,-5.286Z" style="fill:#fff;"/><path d="M175.918,175.499l-23.772,13.724l-18.612,-13.724l42.384,0Z" style="fill:#fff;fill-rule:nonzero;"/><path d="M135.23,147.408c9.852,2.38 17.18,11.261 17.18,21.841c0,6.862 -3.083,13.01 -7.938,17.133c-0.556,0.471 -2.528,1.247 -2.528,1.247c0,0 -8.432,-14.438 -8.044,-14.876c0.827,-0.933 1.33,-2.16 1.33,-3.504l0,-21.841Z" style="fill:#fff;"/><g><path d="M152.41,169.249l-15.568,-1.714l-0.807,-22.62l16.358,-0.374l0.017,24.708Z" style="fill:#fff;fill-rule:nonzero;"/><path d="M129.943,122.448c12.4,0 22.467,10.067 22.467,22.467c0,12.4 -10.067,22.468 -22.467,22.468c-12.4,0 -22.467,-10.068 -22.467,-22.468c0,-12.4 10.067,-22.467 22.467,-22.467Zm0,17.181c2.918,0 5.287,2.369 5.287,5.286c0,2.918 -2.369,5.287 -5.287,5.287c-2.918,0 -5.287,-2.369 -5.287,-5.287c0,-2.917 2.369,-5.286 5.287,-5.286Z" style="fill:#fff;"/><path d="M144.443,226.147l4.595,-38.073l-19.11,0.169l3.606,-13.724l53.371,0l-42.462,51.628Z" style="fill:#fff;fill-rule:nonzero;"/><path d="M154.726,189.157l-37.228,0l16.386,-16.386l14.071,1.748l6.771,14.638Z" style="fill:#fff;"/></g></g><path d="M175.884,168.563c0,0.233 0.011,0.462 0.034,0.686l-17.287,0l0,-65.032l17.253,0l0,64.346Z" style="fill:#fff;fill-rule:nonzero;"/><path d="M68.445,141.378l0,7.3c0,1.831 1.487,3.318 3.318,3.318l7.3,0l0,17.253l-13.935,0c-7.309,0 -13.312,-5.639 -13.89,-12.8c-0.03,-0.374 -0.046,-0.753 -0.046,-1.135l0,-51.097l17.253,0l0,37.161Z" style="fill:#fff;fill-rule:nonzero;"/><path d="M227.076,141.378l0,7.3c0,1.831 1.487,3.318 3.318,3.318l7.3,0l0,17.253l-13.936,0c-7.309,0 -13.311,-5.639 -13.889,-12.8c-0.031,-0.374 -0.046,-0.753 -0.046,-1.135l0,-51.097l17.253,0l0,19.908l10.618,0l0,17.253l-10.618,0Z" style="fill:#fff;fill-rule:nonzero;"/><path d="M102.573,168.775c0,0.161 0.012,0.319 0.034,0.474l-17.287,0l0,-44.934l17.253,0l0,44.46Z" style="fill:#fff;fill-rule:nonzero;"/><circle cx="93.963" cy="104.217" r="8.643" style="fill:#fff;"/><path d="M285.005,189.157c-18.203,60.379 -74.281,104.406 -140.562,104.406c-66.281,0 -122.36,-44.027 -140.562,-104.406l18.058,0c17.573,50.746 65.812,87.226 122.504,87.226c56.692,0 104.931,-36.48 122.503,-87.226l18.059,0Zm-281.124,-84.75c18.202,-60.38 74.281,-104.407 140.562,-104.407c66.281,0 122.359,44.027 140.562,104.407l-18.059,0c-17.572,-50.747 -65.811,-87.226 -122.503,-87.226c-56.692,0 -104.931,36.479 -122.504,87.226l-18.058,0Z" style="fill:#ffde73;"/></g></svg>