<?xml version="1.0" encoding="iso-8859-1"?>
<!-- Generator: Adobe Illustrator 19.0.0, SVG Export Plug-In . SVG Version: 6.00 Build 0)  -->
<svg version="1.1" id="Capa_1" xmlns="http://www.w3.org/2000/svg" xmlns:xlink="http://www.w3.org/1999/xlink" x="0px" y="0px"
	 viewBox="0 0 496 496" style="enable-background:new 0 0 496 496;" xml:space="preserve">
<g>
	<g>
		<g>
			<path d="M192,0H16v80H0v312c0,57.344,46.656,104,104,104s104-46.656,104-104V80h-16V0z M32,16h144v64H32V16z M192,112h-16v16h16
				v264c0,48.52-39.48,88-88,88s-88-39.48-88-88V128h144v-16H16V96h176V112z"/>
			<path d="M128,256h16v32c0,4.408-3.584,8-8,8h-24v-89.136c13.768-3.576,24-16,24-30.864c0-17.648-14.352-32-32-32
				s-32,14.352-32,32c0,14.864,10.232,27.288,24,30.864V336H72c-4.416,0-8-3.592-8-8v-32h16v-48H32v48h16v32
				c0,13.232,10.768,24,24,24h24v16.808c-18.232,3.72-32,19.88-32,39.192c0,22.056,17.944,40,40,40c22.056,0,40-17.944,40-40
				c0-19.312-13.768-35.472-32-39.192V312h24c13.232,0,24-10.768,24-24v-32h16v-48h-48V256z M48,280v-16h16v16H48z M128,408
				c0,13.232-10.768,24-24,24s-24-10.768-24-24s10.768-24,24-24S128,394.768,128,408z M104,192c-8.824,0-16-7.176-16-16
				c0-8.824,7.176-16,16-16s16,7.176,16,16C120,184.824,112.824,192,104,192z M144,224h16v16h-16V224z"/>
			<path d="M472,288v-56.328C472,174.504,425.496,128,368.32,128c-57.168,0-103.672,46.504-103.672,103.672V288
				c-13.232,0-24,10.768-24,24v160c0,13.232,10.768,24,24,24H472c13.232,0,24-10.768,24-24V312C496,298.768,485.232,288,472,288z
				 M280.648,231.672c0-48.336,39.328-87.672,87.672-87.672S456,183.336,456,231.672V288h-16v-56.328
				c0-39.52-32.16-71.672-71.68-71.672c-39.52,0-71.672,32.152-71.672,71.672V288h-16V231.672z M424,231.672V288H312.648v-56.328
				c0-30.696,24.976-55.672,55.672-55.672C399.024,176,424,200.976,424,231.672z M480,472c0,4.408-3.584,8-8,8H264.648
				c-4.416,0-8-3.592-8-8V312c0-4.408,3.584-8,8-8H472c4.416,0,8,3.592,8,8V472z"/>
			<path d="M368,320c-22.056,0-40,17.944-40,40c0,12.504,6.032,24.328,16,31.832V464h48v-72.168c9.968-7.512,16-19.328,16-31.832
				C408,337.944,390.056,320,368,320z M379.976,380.648L376,382.96V448h-16v-65.04l-3.976-2.312
				C348.496,376.264,344,368.544,344,360c0-13.232,10.768-24,24-24s24,10.768,24,24C392,368.544,387.504,376.264,379.976,380.648z"
				/>
			<rect x="48" y="32" width="16" height="16"/>
			<rect x="144" y="32" width="16" height="16"/>
		</g>
	</g>
</g>
<g>
</g>
<g>
</g>
<g>
</g>
<g>
</g>
<g>
</g>
<g>
</g>
<g>
</g>
<g>
</g>
<g>
</g>
<g>
</g>
<g>
</g>
<g>
</g>
<g>
</g>
<g>
</g>
<g>
</g>
</svg>
